<?xml version="1.0" encoding="utf-8"?>
<!-- Generator: Adobe Illustrator 24.1.1, SVG Export Plug-In . SVG Version: 6.00 Build 0)  -->
<svg version="1.1" id="Layer_1" xmlns="http://www.w3.org/2000/svg" xmlns:xlink="http://www.w3.org/1999/xlink" x="0px" y="0px"
	 viewBox="0 0 512 512" style="enable-background:new 0 0 512 512;" xml:space="preserve">
<style type="text/css">
	.st0{fill:currentColor;}
</style>
<g>
	<path class="st0" d="M162.6,256c0,12.8,10.4,23.2,23.2,23.2h139.3c12.8,0,23.2-10.4,23.2-23.2c0-12.8-10.4-23.2-23.2-23.2H185.8
		C173,232.8,162.6,243.2,162.6,256z"/>
	<path class="st0" d="M185.8,348.9h-41.6c-49.4,1.3-91.8-35.2-97.7-84.3c-4.8-51.1,32.8-96.3,83.9-101.1c3-0.3,6-0.4,9-0.4h46.4
		c12.8,0,23.2-10.4,23.2-23.2c0-12.8-10.4-23.2-23.2-23.2h-41.6c-71.2-0.9-132.2,50.6-143,121C-8.9,314,44.7,384,121,394.1
		c6.1,0.8,12.2,1.2,18.4,1.2h46.4c12.8,0,23.2-10.4,23.2-23.2C209,359.3,198.6,348.9,185.8,348.9z"/>
	<path class="st0" d="M510.9,238.4C500.1,167.1,438,115,366,116.7h-35.1c-18.8,0-29,10.5-29,23.2c0,12.8,10.4,23.2,23.2,23.2h41.6
		c49.4-1.3,91.8,35.2,97.7,84.3c4.8,51.1-32.8,96.3-83.9,101.1c-3,0.3-6,0.4-9,0.4h-46.4c-12.8,0-23.2,10.4-23.2,23.2
		c0,12.8,10.4,23.2,23.2,23.2h46.4c76.9,0.6,139.8-61.2,140.4-138.2C512,250.9,511.7,244.6,510.9,238.4z"/>
</g>
</svg>
